<svg width="21" height="21" viewBox="0 0 21 21" fill="none" xmlns="http://www.w3.org/2000/svg">
<g clip-path="url(#clip0)">
<path d="M20.7767 8.39374L10.8224 1.10539C10.6304 0.96487 10.3696 0.96487 10.1778 1.10539L0.223354 8.39374C-0.0197868 8.57179 -0.072615 8.91321 0.105434 9.15635C0.283483 9.39949 0.624938 9.45223 0.868037 9.27427L10.5 2.22188L20.132 9.27423C20.2291 9.34539 20.342 9.37963 20.4539 9.37963C20.6219 9.37963 20.7877 9.30232 20.8946 9.15631C21.0727 8.91321 21.0198 8.57179 20.7767 8.39374Z" fill="url(#paint0_linear)"/>
<path d="M18.139 9.39771C17.8377 9.39771 17.5934 9.64199 17.5934 9.94334V18.6284H13.2284V13.8875C13.2284 12.3831 12.0044 11.1592 10.5001 11.1592C8.99568 11.1592 7.7717 12.3831 7.7717 13.8875V18.6284H3.40669V9.94338C3.40669 9.64204 3.16236 9.39775 2.86106 9.39775C2.55976 9.39775 2.31543 9.64204 2.31543 9.94338V19.1741C2.31543 19.4754 2.55976 19.7197 2.86106 19.7197H8.31733C8.60427 19.7197 8.83909 19.498 8.86082 19.2166C8.86214 19.2038 8.86296 19.1899 8.86296 19.1741V13.8876C8.86296 12.9848 9.59734 12.2505 10.5001 12.2505C11.4028 12.2505 12.1372 12.9849 12.1372 13.8876V19.1741C12.1372 19.1898 12.138 19.2035 12.1393 19.2161C12.1608 19.4977 12.3957 19.7197 12.6828 19.7197H18.139C18.4404 19.7197 18.6847 19.4754 18.6847 19.1741V9.94338C18.6846 9.64199 18.4403 9.39771 18.139 9.39771Z" fill="url(#paint1_linear)"/>
</g>
<defs>
<linearGradient id="paint0_linear" x1="10.5" y1="1" x2="10.5" y2="9.37966" gradientUnits="userSpaceOnUse">
<stop stop-color="#06BC74"/>
<stop offset="1" stop-color="#156EB9"/>
</linearGradient>
<linearGradient id="paint1_linear" x1="10.5001" y1="9.39771" x2="10.5001" y2="19.7197" gradientUnits="userSpaceOnUse">
<stop stop-color="#06BC74"/>
<stop offset="1" stop-color="#156EB9"/>
</linearGradient>
<clipPath id="clip0">
<rect width="21" height="21" fill="white"/>
</clipPath>
</defs>
</svg>
