<svg width="17" height="17" viewBox="0 0 17 17" fill="none" xmlns="http://www.w3.org/2000/svg">
<path d="M9.16406 4.58203V8.22495L11.5815 10.6424C11.8409 10.9018 11.8409 11.3222 11.5815 11.5815C11.3222 11.8409 10.9017 11.8409 10.6424 11.5815L8.03044 8.96956C7.9059 8.84505 7.83594 8.67611 7.83594 8.5V4.58203C7.83594 4.21527 8.13324 3.91797 8.5 3.91797C8.86676 3.91797 9.16406 4.21527 9.16406 4.58203ZM11.112 0H5.88801C4.49713 0 3.12495 0.488816 2.02702 1.44361V0.664062C2.02702 0.297301 1.72972 0 1.36296 0C0.996193 0 0.698893 0.297301 0.698893 0.664062V3.27605C0.698893 3.64281 0.99875 3.94012 1.36296 3.94012H3.97495C4.34171 3.94012 4.63901 3.64281 4.63901 3.27605C4.63901 2.90929 4.34171 2.61199 3.97495 2.61199H2.71877C3.55928 1.80167 4.69386 1.32812 5.88801 1.32812H11.112C13.6263 1.32812 15.6719 3.37367 15.6719 5.88801V11.112C15.6719 13.6263 13.6263 15.6719 11.112 15.6719H5.88801C3.37367 15.6719 1.32812 13.6263 1.32812 11.112V8.5C1.32812 8.13324 1.03082 7.83594 0.664062 7.83594C0.297301 7.83594 0 8.13324 0 8.5V11.112C0 14.3587 2.64134 17 5.88801 17H11.112C14.3587 17 17 14.3587 17 11.112V5.88801C17 2.64134 14.3587 0 11.112 0V0Z" fill="black"/>
<path d="M9.16406 4.58203V8.22495L11.5815 10.6424C11.8409 10.9018 11.8409 11.3222 11.5815 11.5815C11.3222 11.8409 10.9017 11.8409 10.6424 11.5815L8.03044 8.96956C7.9059 8.84505 7.83594 8.67611 7.83594 8.5V4.58203C7.83594 4.21527 8.13324 3.91797 8.5 3.91797C8.86676 3.91797 9.16406 4.21527 9.16406 4.58203ZM11.112 0H5.88801C4.49713 0 3.12495 0.488816 2.02702 1.44361V0.664062C2.02702 0.297301 1.72972 0 1.36296 0C0.996193 0 0.698893 0.297301 0.698893 0.664062V3.27605C0.698893 3.64281 0.99875 3.94012 1.36296 3.94012H3.97495C4.34171 3.94012 4.63901 3.64281 4.63901 3.27605C4.63901 2.90929 4.34171 2.61199 3.97495 2.61199H2.71877C3.55928 1.80167 4.69386 1.32812 5.88801 1.32812H11.112C13.6263 1.32812 15.6719 3.37367 15.6719 5.88801V11.112C15.6719 13.6263 13.6263 15.6719 11.112 15.6719H5.88801C3.37367 15.6719 1.32812 13.6263 1.32812 11.112V8.5C1.32812 8.13324 1.03082 7.83594 0.664062 7.83594C0.297301 7.83594 0 8.13324 0 8.5V11.112C0 14.3587 2.64134 17 5.88801 17H11.112C14.3587 17 17 14.3587 17 11.112V5.88801C17 2.64134 14.3587 0 11.112 0V0Z" fill="url(#paint0_linear)"/>
<defs>
<linearGradient id="paint0_linear" x1="8.5" y1="0" x2="8.5" y2="17" gradientUnits="userSpaceOnUse">
<stop stop-color="#09B381"/>
<stop offset="1" stop-color="#0C7DB7"/>
</linearGradient>
</defs>
</svg>
