<svg width="24" height="18" viewBox="0 0 24 18" fill="none" xmlns="http://www.w3.org/2000/svg">
<path d="M23.9023 5.38268L19.8853 0.599387C19.7366 0.422477 19.4654 0.378837 19.2598 0.498679L16.6663 2.01064H13.2838C13.24 2.01064 13.1964 2.0192 13.1543 2.03045L10.5317 2.72248L7.81039 2.04018L5.16617 0.498679C4.96402 0.380851 4.69778 0.420798 4.54745 0.591666L0.104397 5.63647C-0.0552707 5.81774 -0.0289035 6.08244 0.163723 6.23434L2.49246 8.07142L4.58169 10.6522C3.97067 11.2489 3.98257 12.19 4.61831 12.773C4.90011 13.0311 5.25845 13.177 5.62704 13.2109C5.61422 13.2874 5.60763 13.3651 5.60763 13.444C5.60763 13.8512 5.78067 14.2341 6.09469 14.5219C6.4089 14.81 6.82657 14.9686 7.27078 14.9686C7.27682 14.9686 7.28268 14.9682 7.28854 14.9681C7.28836 14.9785 7.28781 14.9887 7.28781 14.9991C7.28781 15.4063 7.46084 15.7892 7.77487 16.0772C8.08908 16.3651 8.50674 16.5237 8.95096 16.5237C9.03866 16.5237 9.12546 16.5171 9.2106 16.505C9.24667 16.8441 9.40616 17.1741 9.68887 17.4332C10.013 17.7305 10.4389 17.879 10.8648 17.879C11.2907 17.879 11.7166 17.7305 12.0409 17.4332L12.2952 17.2001L12.4019 17.279C12.7235 17.5645 13.141 17.7072 13.5584 17.7072C13.9843 17.7072 14.4102 17.5586 14.7343 17.2614C15.0652 16.9581 15.2273 16.5578 15.2205 16.1595C15.6548 16.1655 16.0917 16.0171 16.4226 15.714C16.7531 15.4109 16.9151 15.0109 16.9087 14.6127C17.3612 14.6193 17.7904 14.46 18.1106 14.1664C18.4415 13.8631 18.6035 13.4628 18.5968 13.0645C19.0315 13.0706 19.468 12.9222 19.7989 12.6189C20.3636 12.1013 20.4362 11.3011 20.0175 10.7105L21.5429 7.78188L23.8363 5.97283C24.0258 5.82328 24.0548 5.56413 23.9023 5.38268ZM5.01565 1.43342L6.91702 2.54171L2.78085 7.16085L1.12338 5.85316L5.01565 1.43342ZM5.2839 11.2269L5.85776 10.7009C5.87515 10.685 5.89346 10.6699 5.91214 10.6558C6.02438 10.5718 6.16025 10.5218 6.30417 10.5099C6.30819 10.5096 6.31241 10.5096 6.31643 10.5094C6.33694 10.5079 6.35745 10.5069 6.37814 10.507C6.5748 10.5096 6.75754 10.5832 6.89303 10.7143C7.1589 10.972 7.14462 11.3929 6.86117 11.6528L6.30472 12.1629C6.02328 12.4208 5.56534 12.4208 5.2839 12.1629C5.00247 11.9047 5.00247 11.4849 5.2839 11.2269ZM6.76028 13.9118C6.62387 13.7869 6.5488 13.6208 6.5488 13.444C6.5488 13.2673 6.62387 13.1011 6.76028 12.9761L7.87301 11.9561C8.08615 11.7607 8.42123 11.7071 8.69369 11.8262C8.97458 11.9488 9.1326 12.2283 9.0914 12.5095C9.06943 12.6595 8.99325 12.8008 8.87643 12.9081L7.78128 13.9118C7.64487 14.0369 7.46359 14.1057 7.27078 14.1057C7.07797 14.1057 6.8967 14.0369 6.76028 13.9118ZM8.44046 15.4669C8.30404 15.342 8.22897 15.1759 8.22897 14.9991C8.22897 14.8224 8.30404 14.6562 8.44046 14.5312L9.55301 13.5112C9.78097 13.3024 10.1466 13.2574 10.4257 13.4063C10.6806 13.5422 10.8141 13.8091 10.7703 14.075C10.7463 14.2212 10.6705 14.3586 10.5564 14.4632L9.46145 15.4669C9.32504 15.592 9.14377 15.6608 8.95096 15.6608C8.75815 15.6608 8.57687 15.592 8.44046 15.4669ZM10.3543 16.8231C10.0728 16.5651 10.0728 16.1454 10.3543 15.8874L10.9281 15.3613C10.9455 15.3454 10.9637 15.3305 10.9823 15.3164C10.9829 15.316 10.9832 15.3157 10.9836 15.3153C11.077 15.2459 11.1867 15.1994 11.3037 15.1791C11.3064 15.1787 11.3092 15.1784 11.3119 15.1781C11.3321 15.1747 11.3526 15.172 11.3731 15.1703C11.3813 15.1697 11.3896 15.1697 11.398 15.1692C11.4148 15.1683 11.4315 15.1673 11.4485 15.1675C11.645 15.17 11.8279 15.2435 11.9634 15.3748C11.9801 15.3909 11.9956 15.4077 12.0099 15.425C12.2263 15.6843 12.1972 16.0695 11.9286 16.3159L11.3751 16.8233C11.0937 17.0813 10.6357 17.0811 10.3543 16.8231ZM19.1333 12.0088C18.8518 12.2669 18.3939 12.2667 18.1125 12.0088C18.1022 11.9994 18.0914 11.9906 18.0804 11.9824L15.0544 9.17938C14.8715 9.01002 14.5736 9.00868 14.3888 9.17635C14.2041 9.34387 14.2026 9.61695 14.3853 9.78631L17.4441 12.6194C17.4445 12.6197 17.4449 12.6201 17.4452 12.6204C17.7267 12.8784 17.7267 13.2983 17.4452 13.5563C17.3088 13.6814 17.1275 13.7502 16.9347 13.7502C16.7417 13.7502 16.5605 13.6814 16.4242 13.5563L14.378 11.6612C14.1953 11.4918 13.8974 11.4905 13.7126 11.658C13.5279 11.8256 13.5264 12.0987 13.7091 12.2681L15.724 14.1342C15.7343 14.146 15.7453 14.1572 15.757 14.1679C16.0384 14.4259 16.0384 14.8459 15.757 15.1039C15.4754 15.3618 15.0172 15.3617 14.7358 15.1037L13.619 14.0693C13.4361 13.8999 13.1382 13.8984 12.9535 14.0661C12.7687 14.2336 12.7672 14.5067 12.95 14.676L14.0356 15.6814C14.0459 15.6932 14.0569 15.7046 14.0688 15.7153C14.3502 15.9733 14.3502 16.3933 14.0688 16.6512C13.7873 16.9094 13.3294 16.9092 13.0479 16.6512C13.0155 16.6215 12.9774 16.5987 12.9412 16.5732C12.9104 16.5517 12.9024 16.5368 12.9178 16.5025C12.9333 16.4678 12.9566 16.4364 12.9721 16.4015C12.9893 16.3625 13.0033 16.3224 13.0168 16.2821C13.089 16.069 13.1102 15.8397 13.0778 15.6185C13.0155 15.194 12.7608 14.811 12.3748 14.5686C12.1663 14.4378 11.925 14.3521 11.6748 14.3199C11.796 13.8297 11.6505 13.2983 11.2718 12.9316C10.9602 12.6298 10.5392 12.4604 10.0864 12.4547C10.0699 12.4546 10.0534 12.4546 10.0368 12.4547C10.0468 12.0586 9.88974 11.665 9.59183 11.3765C9.28 11.0747 8.85904 10.9053 8.4064 10.8996C8.27182 10.898 8.13595 10.9111 8.00485 10.9387C7.94882 10.5814 7.75235 10.2507 7.4548 10.0142C7.15909 9.7796 6.7872 9.64935 6.39114 9.64431C5.97421 9.63877 5.5646 9.77976 5.25497 10.0361L3.43582 7.7891L7.78787 2.92893L9.17489 3.27671L7.36343 6.20681C7.14444 6.56113 7.08914 6.97236 7.20761 7.36479C7.32608 7.75738 7.60403 8.08401 7.99057 8.28475C8.01474 8.29734 8.03909 8.30926 8.06381 8.32067C8.06564 8.32151 8.06747 8.32235 8.06949 8.32319C8.13449 8.3529 8.20132 8.37841 8.26907 8.3999C8.58456 8.5001 8.92532 8.51101 9.254 8.42776C9.6821 8.31916 10.0384 8.0642 10.2574 7.71005L11.4346 5.80582L13.5365 5.94245L19.1335 11.0729C19.4147 11.331 19.4147 11.7508 19.1333 12.0088ZM19.3283 10.0314L14.0777 5.21853C14.0678 5.2093 14.0574 5.20057 14.0466 5.19235C13.971 5.13461 13.8772 5.09969 13.7783 5.09332L11.2048 4.92597C11.0268 4.91473 10.8499 5.0015 10.7621 5.14367L9.43857 7.28472C9.34353 7.43847 9.18881 7.54908 9.00296 7.59625C8.81729 7.64341 8.62247 7.62125 8.45456 7.53414C8.28683 7.44703 8.16617 7.3052 8.11471 7.13484C8.06326 6.96447 8.08725 6.78588 8.18246 6.63213L9.94925 3.77387L10.6652 3.58504C10.67 3.5837 10.6745 3.58202 10.6793 3.58068L13.3513 2.87337H16.5799L20.6104 7.57006L19.3283 10.0314ZM21.2269 6.89297L17.4996 2.54725L19.4019 1.43829L22.8847 5.58527L21.2269 6.89297Z" fill="url(#paint0_linear)"/>
<defs>
<linearGradient id="paint0_linear" x1="12" y1="0.431213" x2="12" y2="17.879" gradientUnits="userSpaceOnUse">
<stop stop-color="#09B580"/>
<stop offset="1" stop-color="#0C7BB9"/>
</linearGradient>
</defs>
</svg>
