<svg width="19" height="19" viewBox="0 0 19 19" fill="none" xmlns="http://www.w3.org/2000/svg">
<circle cx="9.5" cy="9.5" r="9.5" fill="#FF0000"/>
<path d="M9.29395 5.55859C8.89551 5.55859 8.57617 5.44434 8.33594 5.21582C8.10156 4.98145 7.98438 4.68848 7.98438 4.33691C7.98438 3.99121 8.10156 3.7041 8.33594 3.47559C8.57617 3.24121 8.89844 3.12402 9.30273 3.12402C9.71289 3.12402 10.0381 3.24121 10.2783 3.47559C10.5186 3.7041 10.6387 3.99121 10.6387 4.33691C10.6387 4.69434 10.5186 4.9873 10.2783 5.21582C10.0381 5.44434 9.70996 5.55859 9.29395 5.55859ZM8.24805 6.96484H10.375V16H8.24805V6.96484Z" fill="white"/>
</svg>
