<svg width="62" height="59" viewBox="0 0 62 59" fill="none" xmlns="http://www.w3.org/2000/svg">
<path d="M44.6875 35.8359C44.6875 38.4141 43.8594 40.5234 42.2031 42.1641C40.5469 43.8047 38.2812 44.9062 35.4062 45.4688V48.8672H27.3203V45.5625C24.9922 45.1719 23.0781 44.4375 21.5781 43.3594C20.0938 42.2656 19.0156 40.9844 18.3438 39.5156C17.6719 38.0469 17.3359 36.4922 17.3359 34.8516H26.1484C26.1484 36.0234 26.5703 36.9219 27.4141 37.5469C28.2578 38.1562 29.4688 38.4609 31.0469 38.4609C32.7969 38.4609 34.0156 38.25 34.7031 37.8281C35.3906 37.4062 35.7344 36.7344 35.7344 35.8125C35.7344 35.3125 35.5391 34.8828 35.1484 34.5234C34.7734 34.1484 34.1953 33.8125 33.4141 33.5156C32.6328 33.2188 31.5547 32.8828 30.1797 32.5078C27.8672 31.8828 25.8672 31.1953 24.1797 30.4453C22.4922 29.6797 21.0547 28.6016 19.8672 27.2109C18.6953 25.8203 18.1094 24.0547 18.1094 21.9141C18.1094 19.3672 18.8984 17.2812 20.4766 15.6562C22.0547 14.0313 24.3359 12.9922 27.3203 12.5391V8.64844H35.4062V12.7734C38.1406 13.3672 40.2031 14.5234 41.5938 16.2422C42.9844 17.9453 43.6797 20.1094 43.6797 22.7344H34.8203C34.8203 21.9688 34.5156 21.3125 33.9062 20.7656C33.2969 20.2188 32.2031 19.9453 30.625 19.9453C29.1875 19.9453 28.2109 20.1328 27.6953 20.5078C27.1953 20.8828 26.9453 21.3672 26.9453 21.9609C26.9453 22.4609 27.1484 22.8984 27.5547 23.2734C27.9609 23.6484 28.6172 23.9922 29.5234 24.3047C30.4297 24.6172 31.6875 24.9453 33.2969 25.2891C36.9531 26.0703 39.7656 27.3047 41.7344 28.9922C43.7031 30.6641 44.6875 32.9453 44.6875 35.8359Z" fill="white"/>
<circle cx="31" cy="29" r="27" stroke="white" stroke-width="4"/>
<rect y="56" width="62" height="2" fill="white"/>
</svg>
