<svg width="14" height="14" viewBox="0 0 14 14" fill="none" xmlns="http://www.w3.org/2000/svg">
<path d="M10.5 6.29993H9.09998V7.69994H10.5V6.29993Z" fill="#B5B5B5"/>
<path d="M7.69999 6.29993H6.29999V7.69994H7.69999V6.29993Z" fill="#B5B5B5"/>
<path d="M4.90001 6.29993H3.5V7.69994H4.90001V6.29993Z" fill="#B5B5B5"/>
<path d="M11.9 1.40001H11.2V0H9.79999V1.40001H4.19999V0H2.79998V1.40001H2.09999C1.32299 1.40001 0.707004 2.03001 0.707004 2.80002L0.699982 12.6C0.699982 13.37 1.32299 14 2.09999 14H11.9C12.67 14 13.3 13.37 13.3 12.6V2.79999C13.3 2.03001 12.67 1.40001 11.9 1.40001ZM11.9 12.6H2.09999V4.89999H11.9V12.6Z" fill="#B5B5B5"/>
</svg>
