<svg width="12" height="12" viewBox="0 0 12 12" fill="none" xmlns="http://www.w3.org/2000/svg">
<path d="M6.00069 0C2.70476 0 0.00808716 2.70006 0.00808716 5.99991C0.00808716 9.29976 2.70476 11.9998 6.00069 11.9998C9.29661 11.9998 11.9933 9.29976 11.9933 5.99991C11.9933 2.70006 9.29661 0 6.00069 0ZM6.00069 10.4999C3.52874 10.4999 1.50624 8.47489 1.50624 5.99991C1.50624 3.52493 3.52874 1.49993 6.00069 1.49993C8.47263 1.49993 10.4951 3.52493 10.4951 5.99991C10.4951 8.47489 8.47263 10.4999 6.00069 10.4999Z" fill="#09B580"/>
<path d="M7.72288 3.97491L5.25094 6.44989L4.20223 5.39994C3.9026 5.09995 3.45316 5.09995 3.15353 5.39994C2.85389 5.69992 2.85389 6.1499 3.15353 6.44989L4.72658 8.02491C4.8764 8.1749 5.02621 8.24999 5.25094 8.24999C5.47566 8.24999 5.62547 8.1749 5.77529 8.02491L8.77159 5.02486C9.07122 4.72488 9.07122 4.2749 8.77159 3.97491C8.47196 3.67493 8.02251 3.67493 7.72288 3.97491Z" fill="#09B580"/>
</svg>
