<svg width="11" height="11" viewBox="0 0 11 11" fill="none" xmlns="http://www.w3.org/2000/svg">
<g clip-path="url(#clip0)">
<path d="M6.71158 4.28756C6.58128 4.15648 6.4368 4.04029 6.28083 3.94112C5.86772 3.67658 5.38745 3.53602 4.8969 3.53602C4.21604 3.53475 3.56283 3.80527 3.08223 4.28756L0.750648 6.62097C0.27086 7.10169 0.00119308 7.753 0.000763471 8.43217C-0.000138711 9.84946 1.14804 10.9991 2.56532 11C3.24514 11.0024 3.89774 10.7331 4.37817 10.2522L6.30283 8.3275C6.3378 8.29283 6.35732 8.24553 6.35704 8.19629C6.35646 8.09505 6.27391 8.01347 6.17268 8.01405H6.09936C5.69725 8.01547 5.29872 7.93825 4.92625 7.78677C4.85762 7.75852 4.77874 7.77446 4.72646 7.82708L3.34253 9.21284C2.91279 9.64258 2.21605 9.64258 1.78631 9.21284C1.35657 8.7831 1.35657 8.08635 1.78631 7.65661L4.12706 5.3177C4.55646 4.88884 5.25206 4.88884 5.68146 5.3177C5.97084 5.59005 6.42224 5.59005 6.7116 5.3177C6.8361 5.19309 6.91158 5.02782 6.92424 4.85211C6.93762 4.64214 6.86018 4.4365 6.71158 4.28756Z" fill="#C5C5C5"/>
<path d="M10.2476 0.751662C9.24536 -0.250554 7.62044 -0.250554 6.61823 0.751662L4.6954 2.67264C4.6426 2.7257 4.62737 2.8055 4.6569 2.87428C4.6861 2.94326 4.75432 2.98753 4.8292 2.98609H4.89701C5.29866 2.98536 5.69654 3.06318 6.0683 3.21522C6.13693 3.24347 6.21581 3.22753 6.26809 3.1749L7.64834 1.79647C8.07808 1.36674 8.77483 1.36674 9.20456 1.79647C9.6343 2.22621 9.6343 2.92296 9.20456 3.35269L7.4852 5.07021L7.47053 5.08671L6.86931 5.68428C6.43992 6.11313 5.74431 6.11313 5.31492 5.68428C5.02553 5.41192 4.57414 5.41192 4.28478 5.68428C4.15948 5.80983 4.08393 5.97654 4.07214 6.15352C4.05874 6.36349 4.13617 6.56912 4.28478 6.71809C4.49694 6.93116 4.74517 7.10491 5.01797 7.23132C5.05646 7.24965 5.09496 7.26432 5.13345 7.28082C5.17194 7.29731 5.21226 7.31014 5.25075 7.32481C5.28925 7.33948 5.32957 7.3523 5.36806 7.3633L5.47621 7.39262C5.54953 7.41094 5.62286 7.42562 5.698 7.43844C5.78852 7.45189 5.87968 7.46046 5.97112 7.46411H6.09943H6.11043L6.22041 7.45128C6.26072 7.44946 6.30289 7.44029 6.35056 7.44029H6.41287L6.53935 7.42196L6.59801 7.41097L6.70432 7.38897H6.72449C7.17474 7.27587 7.58588 7.04275 7.9141 6.71442L10.2475 4.38101C11.2498 3.37879 11.2498 1.75388 10.2476 0.751662Z" fill="#C5C5C5"/>
</g>
<defs>
<clipPath id="clip0">
<rect width="11" height="11" fill="white"/>
</clipPath>
</defs>
</svg>
