<svg width="21" height="21" viewBox="0 0 21 21" fill="none" xmlns="http://www.w3.org/2000/svg">
<path d="M20.1981 0.0336906C20.1882 0.0368488 20.1777 0.0325011 20.1678 0.0361515L0.480317 7.41898C0.264615 7.50011 0.112037 7.69534 0.085582 7.92487C0.0591269 8.15439 0.163102 8.37908 0.355342 8.50704L4.67154 11.3841L6.25057 17.9819C6.25471 17.9993 6.26537 18.0131 6.27091 18.0297C6.41282 18.4626 6.95788 18.6 7.28396 18.2739L10.3727 15.1852L15.121 18.3508C15.465 18.5815 15.9393 18.4093 16.054 18.0078L20.9759 0.781161C21.1081 0.317519 20.6729 -0.118724 20.1981 0.0336906ZM7.74719 12.5482C7.6453 12.6514 7.61462 12.735 7.5789 12.8651C7.57845 12.8675 7.57738 12.8698 7.57693 12.8721L6.89041 15.3684L5.91227 11.2811L15.4412 4.74717L7.74719 12.5482Z" fill="#09B580"/>
<path d="M4.12661 16.8708C3.8863 16.6305 3.49694 16.6304 3.25663 16.8708L0.180447 19.947C-0.0598642 20.1873 -0.0598642 20.5766 0.180447 20.8169C0.420799 21.0573 0.810079 21.0573 1.05043 20.8169L4.12661 17.7408C4.36692 17.5004 4.36692 17.1111 4.12661 16.8708Z" fill="#09B580"/>
<path d="M4.12661 13.1793C3.8863 12.939 3.49694 12.939 3.25663 13.1793L0.180447 16.2555C-0.0598642 16.4958 -0.0598642 16.8852 0.180447 17.1255C0.420799 17.3658 0.810079 17.3658 1.05043 17.1255L4.12661 14.0493C4.36692 13.809 4.36692 13.4196 4.12661 13.1793Z" fill="#09B580"/>
</svg>
