<svg width="25" height="25" viewBox="0 0 25 25" fill="none" xmlns="http://www.w3.org/2000/svg">
<path d="M12.5 0C5.6075 0 0 5.6075 0 12.5C0 19.3925 5.6075 25 12.5 25C19.3925 25 25 19.3925 25 12.5C25 5.6075 19.3925 0 12.5 0ZM12.5 22.3402C7.07416 22.3402 2.65953 17.9261 2.65953 12.5C2.65953 7.0739 7.07416 2.65979 12.5 2.65979C17.9258 2.65979 22.3405 7.0739 22.3405 12.5C22.3405 17.9261 17.9258 22.3402 12.5 22.3402Z" fill="#09B580"/>
<path d="M19.0145 12.114H13.397V5.35966C13.397 4.79127 12.9362 4.33043 12.3678 4.33043C11.7994 4.33043 11.3385 4.79127 11.3385 5.35966V13.1432C11.3385 13.7116 11.7994 14.1724 12.3678 14.1724H19.0145C19.5829 14.1724 20.0438 13.7116 20.0438 13.1432C20.0438 12.5748 19.5829 12.114 19.0145 12.114Z" fill="#09B580"/>
</svg>
