<svg width="129" height="33" viewBox="0 0 129 33" fill="none" xmlns="http://www.w3.org/2000/svg">
<g clip-path="url(#clip0)">
<path d="M12.79 0H0V12.79V32.44H32.43V0H12.79ZM29.47 27.37L22.56 20.46V2.96H29.47V27.37ZM19.59 2.96V17.5L12.79 10.7V2.96H19.59ZM2.96 2.96H9.82V9.82H2.96V2.96ZM2.96 12.79H10.69L27.37 29.47H2.96V12.79Z" fill="#249BB9"/>
<path d="M43.69 5.83C43.69 5.03 43.05 4.61 42.15 4.61C41.25 4.61 40.62 5 40.62 5.64C40.62 6.52 42.03 6.62 42.42 6.66C44.83 6.98 46.81 7.74 46.81 10.2C46.81 12.91 44.4 14.1 42.15 14.1C40.22 14.1 37.59 12.91 37.59 9.9H40.52C40.52 11.07 41.5 11.29 42.16 11.29C43.11 11.29 43.87 11.02 43.87 10.34C43.87 9.49 42.51 9.42 42.07 9.37C40.15 9.18 37.88 8.79 37.66 6.06V6.08C37.52 3.47 39.66 1.91 42.19 1.91C44.31 1.91 46.6 3.1 46.6 5.83H43.69Z" fill="black"/>
<path d="M60.36 13.95H57.82L57.07 13.24C56.05 13.78 54.87 14.07 53.8 14.07C50.44 14.07 47.73 11.53 47.73 8.02001C47.73 4.41001 50.59 1.95001 53.8 1.95001C55.49 1.95001 57 2.64001 58.11 3.75001C59.19 4.85001 59.89 6.38001 59.89 8.02001C59.89 9.22001 59.52 10.34 58.91 11.27L60.37 12.66V13.95H60.36ZM52.32 8.11001H55.41L56.75 9.33001C56.9 8.94001 56.97 8.47001 56.97 8.02001C56.97 7.10001 56.6 6.29001 56.04 5.71001C55.46 5.12001 54.67 4.76001 53.8 4.76001C52.95 4.76001 52.16 5.12001 51.56 5.73001V5.72001C50.98 6.30001 50.61 7.11001 50.61 8.03001C50.61 8.95001 50.98 9.78001 51.56 10.35V10.33C52.2 10.97 53.03 11.33 53.85 11.33C54.17 11.33 54.44 11.28 54.77 11.19L52.33 8.99001V8.11001H52.32Z" fill="black"/>
<path d="M61.46 10.14V2.09H64.36V10.12C64.36 11.9 67.72 11.87 67.72 10.12V2.09H70.62V10.14C70.62 12.82 68.31 14.14 66.03 14.12C63.73 14.12 61.46 12.82 61.46 10.14Z" fill="black"/>
<path d="M79.36 12.21H75.31L74.65 13.96H71.55L76.3 1.95999H78.37L83.3 13.96H80.03L79.36 12.21ZM76.46 9.23999L76.36 9.50999H78.33L78.26 9.30999L77.34 6.72999L76.46 9.23999Z" fill="black"/>
<path d="M86.96 9.94V13.96H84.08V2.09H88.69C93.4 2.09 94.1 7.9 90.45 9.65L92.99 13.41V13.95H89.91L87.43 9.93H86.96V9.94ZM86.96 7.31H88.62C90.37 7.31 90.38 4.87 88.62 4.87H86.96V7.31Z" fill="black"/>
<path d="M43.69 23.22C43.69 22.42 43.05 22 42.15 22C41.25 22 40.62 22.39 40.62 23.03C40.62 23.91 42.03 24.01 42.42 24.05C44.83 24.37 46.81 25.13 46.81 27.59C46.81 30.3 44.4 31.49 42.15 31.49C40.22 31.49 37.59 30.3 37.59 27.29H40.52C40.52 28.46 41.5 28.68 42.16 28.68C43.11 28.68 43.87 28.41 43.87 27.73C43.87 26.88 42.51 26.81 42.07 26.76C40.15 26.57 37.88 26.18 37.66 23.45V23.47C37.52 20.86 39.66 19.3 42.19 19.3C44.31 19.3 46.6 20.49 46.6 23.22H43.69Z" fill="black"/>
<path d="M59.65 28.54H64.63V31.34H56.75V19.47H59.65V28.54Z" fill="black"/>
<path d="M83.7701 26.36H86.7001C86.2601 29.46 83.7201 31.51 80.6301 31.51C77.2401 31.51 74.4901 28.92 74.4901 25.42C74.4901 21.92 77.2401 19.28 80.6301 19.28C83.6801 19.28 86.3101 21.35 86.6801 24.4H83.7501C82.8701 20.94 77.3801 21.28 77.3801 25.42C77.3801 29.58 82.9401 29.86 83.7701 26.36Z" fill="black"/>
<path d="M90.89 31.34V22.19H87.69V19.48H96.98V22.19H93.79V31.34H90.89Z" fill="black"/>
<path d="M105.03 22.12H103.06V28.75H105.03V31.34H98.2V28.75H100.17V22.12H98.2V19.48H105.03V22.12Z" fill="black"/>
<path d="M112.22 19.29C115.61 19.29 118.37 21.93 118.37 25.43C118.37 28.87 115.61 31.52 112.22 31.52C108.83 31.52 106.08 28.93 106.08 25.43C106.08 21.93 108.83 19.29 112.22 19.29ZM115.46 25.42C115.46 20.94 108.97 20.93 108.97 25.42C108.97 29.9 115.46 29.86 115.46 25.42Z" fill="black"/>
<path d="M119.43 31.34V19.47H121.67L125.77 25.4V19.47H128.63V31.34H126.36L122.31 25.56V31.34H119.43Z" fill="black"/>
<path d="M101.88 2.09H94.07V4.87H101.88V2.09Z" fill="black"/>
<path d="M101.88 6.56H94.07V9.34H101.88V6.56Z" fill="black"/>
<path d="M101.88 11.17H94.07V13.95H101.88V11.17Z" fill="black"/>
<path d="M55.6101 19.47H47.8V22.25H55.6101V19.47Z" fill="black"/>
<path d="M55.6101 23.95H47.8V26.73H55.6101V23.95Z" fill="black"/>
<path d="M55.6101 28.56H47.8V31.34H55.6101V28.56Z" fill="black"/>
<path d="M73.47 19.47H65.66V22.25H73.47V19.47Z" fill="black"/>
<path d="M73.47 23.95H65.66V26.73H73.47V23.95Z" fill="black"/>
<path d="M73.47 28.56H65.66V31.34H73.47V28.56Z" fill="black"/>
</g>
<defs>
<clipPath id="clip0">
<rect width="128.63" height="32.43" fill="white"/>
</clipPath>
</defs>
</svg>
