<svg width="27" height="27" viewBox="0 0 27 27" fill="none" xmlns="http://www.w3.org/2000/svg">
<circle cx="13.5" cy="13.5" r="13.5" fill="#DFDFDF"/>
<path d="M17.0417 16.5H16.4584C16.2973 16.5 16.1667 16.6306 16.1667 16.7917V18.8334H9.16668V7.16668H16.1667V9.20835C16.1667 9.36943 16.2973 9.50003 16.4584 9.50003H17.0417C17.2028 9.50003 17.3334 9.36943 17.3334 9.20835V7.16668C17.3333 6.52235 16.811 6 16.1667 6H9.16668C8.52235 6 8 6.52235 8 7.16668V18.8334C8 19.4777 8.52235 20 9.16668 20H16.1667C16.811 20 17.3334 19.4777 17.3334 18.8333V16.7916C17.3333 16.6306 17.2028 16.5 17.0417 16.5Z" fill="#7A7A7A"/>
<path d="M21.9054 12.7849L18.4054 9.57661C18.32 9.49884 18.1961 9.47749 18.091 9.52477C17.985 9.5712 17.9167 9.676 17.9167 9.79164V10.375C17.9167 10.4576 17.9517 10.5365 18.0132 10.5917L20.0408 12.4167H11.7917C11.6305 12.4167 11.5 12.5471 11.5 12.7083V13.2917C11.5 13.4529 11.6305 13.5833 11.7917 13.5833H20.0408L18.0132 15.4083C17.9517 15.4635 17.9167 15.5424 17.9167 15.625V16.2083C17.9167 16.324 17.985 16.4288 18.091 16.4752C18.1286 16.492 18.1688 16.5 18.2084 16.5C18.2799 16.5 18.3505 16.4735 18.4054 16.4234L21.9054 13.2151C21.9658 13.1598 22 13.0817 22 13C22 12.9182 21.9658 12.8402 21.9054 12.7849Z" fill="#7A7A7A"/>
</svg>
