<svg width="23" height="23" viewBox="0 0 23 23" fill="none" xmlns="http://www.w3.org/2000/svg">
<path d="M12.3984 6.19922V11.1279L15.6692 14.3986C16.02 14.7495 16.02 15.3183 15.6692 15.6692C15.3183 16.02 14.7494 16.02 14.3986 15.6692L10.8647 12.1353C10.6962 11.9668 10.6016 11.7383 10.6016 11.5V6.19922C10.6016 5.70301 11.0038 5.30078 11.5 5.30078C11.9962 5.30078 12.3984 5.70301 12.3984 6.19922ZM15.0339 0H7.96613C6.08435 0 4.22787 0.66134 2.74244 1.95311V0.898438C2.74244 0.402231 2.3402 0 1.844 0C1.34779 0 0.945561 0.402231 0.945561 0.898438V4.43231C0.945561 4.92851 1.35125 5.33074 1.844 5.33074H5.37787C5.87407 5.33074 6.2763 4.92851 6.2763 4.43231C6.2763 3.9361 5.87407 3.53387 5.37787 3.53387H3.67834C4.81549 2.43755 6.35052 1.79688 7.96613 1.79688H15.0338C18.4356 1.79688 21.2031 4.56438 21.2031 7.96613V15.0338C21.2031 18.4356 18.4356 21.2031 15.0339 21.2031H7.96613C4.56438 21.2031 1.79688 18.4356 1.79688 15.0339V11.5C1.79688 11.0038 1.39464 10.6016 0.898438 10.6016C0.402231 10.6016 0 11.0038 0 11.5V15.0339C0 19.4264 3.57358 23 7.96613 23H15.0338C19.4264 23 23 19.4264 23 15.0339V7.96613C23 3.57358 19.4264 0 15.0339 0V0Z" fill="black"/>
<path d="M12.3984 6.19922V11.1279L15.6692 14.3986C16.02 14.7495 16.02 15.3183 15.6692 15.6692C15.3183 16.02 14.7494 16.02 14.3986 15.6692L10.8647 12.1353C10.6962 11.9668 10.6016 11.7383 10.6016 11.5V6.19922C10.6016 5.70301 11.0038 5.30078 11.5 5.30078C11.9962 5.30078 12.3984 5.70301 12.3984 6.19922ZM15.0339 0H7.96613C6.08435 0 4.22787 0.66134 2.74244 1.95311V0.898438C2.74244 0.402231 2.3402 0 1.844 0C1.34779 0 0.945561 0.402231 0.945561 0.898438V4.43231C0.945561 4.92851 1.35125 5.33074 1.844 5.33074H5.37787C5.87407 5.33074 6.2763 4.92851 6.2763 4.43231C6.2763 3.9361 5.87407 3.53387 5.37787 3.53387H3.67834C4.81549 2.43755 6.35052 1.79688 7.96613 1.79688H15.0338C18.4356 1.79688 21.2031 4.56438 21.2031 7.96613V15.0338C21.2031 18.4356 18.4356 21.2031 15.0339 21.2031H7.96613C4.56438 21.2031 1.79688 18.4356 1.79688 15.0339V11.5C1.79688 11.0038 1.39464 10.6016 0.898438 10.6016C0.402231 10.6016 0 11.0038 0 11.5V15.0339C0 19.4264 3.57358 23 7.96613 23H15.0338C19.4264 23 23 19.4264 23 15.0339V7.96613C23 3.57358 19.4264 0 15.0339 0V0Z" fill="#09B580"/>
</svg>
