<svg width="31" height="31" viewBox="0 0 31 31" fill="none" xmlns="http://www.w3.org/2000/svg">
<circle cx="15.5" cy="15.5" r="15.5" fill="#136FB9"/>
<circle cx="15.5" cy="15.5" r="15.5" fill="url(#paint0_linear)"/>
<path d="M25.1467 22.1587L25.0692 22.2517C22.5174 25.3135 19.1182 27.0005 15.5 27.0005C11.8812 27.0005 8.48259 25.3141 5.93018 22.2517L5.85321 22.1587L5.87138 22.0395C6.36423 18.8248 8.04374 16.2425 10.6004 14.7666L10.7822 14.6618L10.927 14.8137C12.1345 16.0805 13.7585 16.7775 15.4994 16.7775C17.2404 16.7775 18.8643 16.08 20.0719 14.8137L20.2167 14.6618L20.3985 14.7666C22.9551 16.2425 24.6347 18.8248 25.128 22.0395L25.1467 22.1587ZM15.5 15.4866C18.6666 15.4866 21.243 12.9102 21.243 9.74359C21.243 6.577 18.6666 4 15.5 4C12.3334 4 9.75692 6.577 9.75692 9.74305C9.75692 12.9091 12.3334 15.4866 15.5 15.4866Z" fill="white"/>
<defs>
<linearGradient id="paint0_linear" x1="15.5" y1="0" x2="15.5" y2="31" gradientUnits="userSpaceOnUse">
<stop stop-color="#05BC73"/>
<stop offset="1" stop-color="#1298AF"/>
</linearGradient>
</defs>
</svg>
