<svg width="28" height="28" viewBox="0 0 28 28" fill="none" xmlns="http://www.w3.org/2000/svg">
<g clip-path="url(#clip0)">
<path d="M21.9032 24.6594H6.09677C5.59797 24.6594 5.19355 24.255 5.19355 23.7562V21.0821C5.19355 19.8082 5.94514 18.6494 7.10839 18.1301C10.4915 16.6194 10.3061 16.6705 10.5697 16.6705H11.6433C12.059 16.6705 12.421 16.9542 12.5203 17.3579C12.899 18.8966 15.1009 18.8973 15.4797 17.3579C15.5791 16.9543 15.9411 16.6705 16.3568 16.6705C17.5121 16.6705 17.5715 16.6476 17.7986 16.749L20.8917 18.1301C22.0549 18.6494 22.8065 19.8082 22.8065 21.0821V23.7562C22.8065 24.255 22.402 24.6594 21.9032 24.6594ZM14.0221 3.34058C10.9799 3.34058 8.50494 5.81553 8.50494 8.85771C8.50494 11.8999 10.9799 14.3748 14.0221 14.3748C17.0642 14.3748 19.5392 11.8999 19.5392 8.85771C19.5392 5.81553 17.0642 3.34058 14.0221 3.34058ZM5.31876 9.2418C3.4033 9.2418 1.84495 10.8001 1.84495 12.7157C1.84495 14.6311 3.4033 16.1895 5.31876 16.1895C7.23427 16.1895 8.79262 14.6311 8.79262 12.7157C8.79256 10.8001 7.23422 9.2418 5.31876 9.2418ZM22.6812 9.2418C20.7657 9.2418 19.2074 10.8001 19.2074 12.7157C19.2074 14.6311 20.7657 16.1895 22.6812 16.1895C24.5967 16.1895 26.155 14.6311 26.155 12.7157C26.155 10.8001 24.5967 9.2418 22.6812 9.2418ZM26.696 17.5164C24.8166 16.677 24.8616 16.6685 24.6044 16.6685C23.259 16.6685 22.3789 16.659 21.7835 16.6561C21.1918 16.6532 20.9958 17.4468 21.5201 17.7211C21.9495 17.9456 22.2101 18.1372 22.5197 18.475C23.4231 19.4562 23.5072 20.4946 23.5071 21.3555C23.507 21.6673 23.7596 21.9197 24.0714 21.9197H27.0968C27.5958 21.9197 28 21.5149 28 21.0164V19.5266C28 18.6589 27.488 17.8703 26.696 17.5164ZM3.39556 16.6685C3.13961 16.6685 3.18997 16.6741 1.30403 17.5164C0.512016 17.8703 0 18.6589 0 19.5266V21.0164C0 21.5148 0.404194 21.9196 0.903226 21.9196H3.92835C4.24031 21.9196 4.4931 21.6669 4.4927 21.355C4.49169 20.491 4.57337 19.46 5.48032 18.4749C5.78838 18.1387 6.05122 17.9455 6.47105 17.725C6.9943 17.4501 6.80095 16.6588 6.2099 16.6598C5.61101 16.6608 4.73098 16.6685 3.39556 16.6685Z" fill="#09B580"/>
</g>
<defs>
<clipPath id="clip0">
<rect width="28" height="28" fill="white"/>
</clipPath>
</defs>
</svg>
