<svg width="14" height="15" viewBox="0 0 14 15" fill="none" xmlns="http://www.w3.org/2000/svg">
<path d="M13.2814 2.49996C13.2814 3.62183 12.3721 4.53129 11.2502 4.53129C10.1283 4.53129 9.21899 3.62183 9.21899 2.49996C9.21899 1.37821 10.1283 0.46875 11.2502 0.46875C12.3721 0.46875 13.2814 1.37821 13.2814 2.49996Z" fill="white"/>
<path d="M11.2502 5.00004C9.87142 5.00004 8.75024 3.87875 8.75024 2.49996C8.75024 1.12129 9.87142 0 11.2502 0C12.629 0 13.7502 1.12129 13.7502 2.49996C13.7502 3.87875 12.629 5.00004 11.2502 5.00004ZM11.2502 0.9375C10.3884 0.9375 9.68774 1.63879 9.68774 2.49996C9.68774 3.36124 10.3884 4.06254 11.2502 4.06254C12.1121 4.06254 12.8127 3.36124 12.8127 2.49996C12.8127 1.63879 12.1121 0.9375 11.2502 0.9375Z" fill="white"/>
<path d="M13.2814 12.5001C13.2814 13.6218 12.3721 14.5313 11.2502 14.5313C10.1283 14.5313 9.21899 13.6218 9.21899 12.5001C9.21899 11.3782 10.1283 10.4688 11.2502 10.4688C12.3721 10.4688 13.2814 11.3782 13.2814 12.5001Z" fill="white"/>
<path d="M11.2502 15C9.87142 15 8.75024 13.8787 8.75024 12.5001C8.75024 11.1213 9.87142 10 11.2502 10C12.629 10 13.7502 11.1213 13.7502 12.5001C13.7502 13.8787 12.629 15 11.2502 15ZM11.2502 10.9375C10.3884 10.9375 9.68774 11.6388 9.68774 12.5001C9.68774 13.3612 10.3884 14.0625 11.2502 14.0625C12.1121 14.0625 12.8127 13.3612 12.8127 12.5001C12.8127 11.6388 12.1121 10.9375 11.2502 10.9375Z" fill="white"/>
<path d="M4.53129 7.49996C4.53129 8.62183 3.62183 9.53117 2.49996 9.53117C1.37821 9.53117 0.46875 8.62183 0.46875 7.49996C0.46875 6.3781 1.37821 5.46875 2.49996 5.46875C3.62183 5.46875 4.53129 6.3781 4.53129 7.49996Z" fill="white"/>
<path d="M2.49996 9.99992C1.12129 9.99992 0 8.87875 0 7.49996C0 6.12118 1.12129 5 2.49996 5C3.87875 5 5.00004 6.12118 5.00004 7.49996C5.00004 8.87875 3.87875 9.99992 2.49996 9.99992ZM2.49996 5.9375C1.63811 5.9375 0.9375 6.63868 0.9375 7.49996C0.9375 8.36124 1.63811 9.06242 2.49996 9.06242C3.36193 9.06242 4.06254 8.36124 4.06254 7.49996C4.06254 6.63868 3.36193 5.9375 2.49996 5.9375Z" fill="white"/>
<path d="M3.97572 7.20011C3.75817 7.20011 3.54691 7.08693 3.4319 6.88448C3.26127 6.5851 3.36632 6.20322 3.6657 6.0319L9.465 2.7257C9.76437 2.55381 10.1463 2.65887 10.3176 2.95939C10.4882 3.25877 10.3832 3.64065 10.0838 3.81197L4.28437 7.11817C4.18686 7.17379 4.08066 7.20011 3.97572 7.20011Z" fill="white"/>
<path d="M9.77451 12.3562C9.66946 12.3562 9.56326 12.3299 9.46575 12.2743L3.66635 8.9681C3.36697 8.79747 3.26203 8.41558 3.43266 8.11551C3.6026 7.81557 3.98506 7.70994 4.28513 7.88183L10.0845 11.188C10.3839 11.3587 10.4889 11.7405 10.3182 12.0406C10.2026 12.2431 9.99138 12.3562 9.77451 12.3562Z" fill="white"/>
</svg>
